<?xml version="1.0" encoding="UTF-8" standalone="no"?>
<!DOCTYPE svg PUBLIC "-//W3C//DTD SVG 1.1//EN" "http://www.w3.org/Graphics/SVG/1.1/DTD/svg11.dtd">
<svg width="100%" height="100%" viewBox="0 0 122 75" version="1.1" xmlns="http://www.w3.org/2000/svg" xmlns:xlink="http://www.w3.org/1999/xlink" xml:space="preserve" xmlns:serif="http://www.serif.com/" style="fill-rule:evenodd;clip-rule:evenodd;stroke-linejoin:round;stroke-miterlimit:2;">
    <g id="Artboard1" transform="matrix(0.996412,0,0,1,0,0)">
        <rect x="0" y="0" width="121.774" height="74.524" style="fill:none;"/>
        <clipPath id="_clip1">
            <rect x="0" y="0" width="121.774" height="74.524"/>
        </clipPath>
        <g clip-path="url(#_clip1)">
            <g id="Layer_x0020_1" transform="matrix(1.0036,0,0,1,-0.43846,-22.8323)">
                <g id="_2789889399504">
                    <rect x="0.481" y="22.867" width="121.292" height="74.483" style="fill:rgb(254,254,254);"/>
                    <path d="M0.481,91.933L121.733,91.933L121.733,97.356L0.481,97.356L0.481,91.933ZM0.481,80.887L121.733,80.887L121.733,86.31L0.481,86.31L0.481,80.887ZM0.481,69.279L121.733,69.279L121.733,74.743L0.481,74.743L0.481,69.279ZM0.481,57.746L121.733,57.746L121.733,63.128L0.481,63.128L0.481,57.746ZM0.481,46.172L121.733,46.172L121.733,51.596L0.481,51.596L0.481,46.172ZM0.481,34.598L121.733,34.598L121.733,40.022L0.481,40.022L0.481,34.598ZM0.481,22.867L121.733,22.867L121.733,28.448L0.481,28.448L0.481,22.867Z" style="fill:rgb(237,50,55);"/>
                    <path d="M0.399,22.832L47.044,22.832L47.044,63.163L0.399,63.163L0.399,22.832Z" style="fill:rgb(62,64,149);"/>
                    <rect x="0.481" y="22.867" width="121.292" height="74.483" style="fill:none;"/>
                    <path d="M3.759,28.091L5.212,29.264L4.527,27.522L6.145,26.549L4.246,26.549L3.718,24.69L3.19,26.514L1.332,26.514L2.909,27.488L2.298,29.271L3.752,28.098L3.759,28.091ZM7.763,32.096L9.217,33.268L8.572,31.526L10.149,30.553L8.25,30.553L7.763,28.729L7.235,30.512L5.336,30.512L6.954,31.485L6.309,33.268L7.763,32.096ZM3.759,36.1L5.212,37.272L4.527,35.531L6.145,34.557L4.246,34.557L3.718,32.733L3.19,34.516L1.332,34.516L2.909,35.49L2.298,37.272L3.752,36.1L3.759,36.1ZM7.763,40.145L9.217,41.276L8.572,39.535L10.149,38.561L8.25,38.561L7.763,36.737L7.235,38.52L5.336,38.52L6.954,39.535L6.309,41.276L7.763,40.145ZM3.759,44.149L5.212,45.281L4.527,43.539L6.145,42.565L4.246,42.565L3.718,40.742L3.19,42.524L1.332,42.524L2.909,43.498L2.298,45.281L3.752,44.149L3.759,44.149ZM7.763,48.154L9.217,49.285L8.572,47.543L10.149,46.57L8.25,46.57L7.763,44.746L7.235,46.57L5.336,46.57L6.954,47.543L6.309,49.285L7.763,48.154ZM3.759,52.158L5.212,53.289L4.527,51.548L6.145,50.574L4.246,50.574L3.718,48.75L3.19,50.533L1.332,50.533L2.909,51.548L2.298,53.289L3.752,52.158L3.759,52.158ZM7.763,56.162L9.217,57.334L8.572,55.593L10.149,54.578L8.25,54.578L7.763,52.754L7.235,54.578L5.336,54.578L6.954,55.552L6.309,57.334L7.763,56.162ZM3.759,60.125L5.212,61.256L4.527,59.597L6.145,58.582L4.246,58.582L3.718,56.759L3.19,58.582L1.332,58.582L2.909,59.556L2.298,61.256L3.752,60.125L3.759,60.125ZM11.767,28.084L13.221,29.257L12.576,27.515L14.153,26.542L12.254,26.542L11.726,24.684L11.239,26.507L9.34,26.507L10.958,27.481L10.314,29.264L11.767,28.091L11.767,28.084ZM15.771,32.089L17.225,33.261L16.581,31.52L18.158,30.546L16.258,30.546L15.771,28.722L15.244,30.505L13.344,30.505L14.962,31.478L14.318,33.261L15.771,32.089ZM11.767,36.093L13.221,37.265L12.576,35.524L14.153,34.55L12.254,34.55L11.726,32.726L11.239,34.509L9.34,34.509L10.958,35.483L10.314,37.265L11.767,36.093ZM15.771,40.138L17.225,41.27L16.581,39.528L18.158,38.554L16.258,38.554L15.771,36.731L15.244,38.513L13.344,38.513L14.962,39.528L14.318,41.27L15.771,40.138ZM11.767,44.142L13.221,45.274L12.576,43.532L14.153,42.559L12.254,42.559L11.726,40.735L11.239,42.517L9.34,42.517L10.958,43.491L10.314,45.274L11.767,44.142ZM15.771,48.147L17.225,49.278L16.581,47.536L18.158,46.563L16.258,46.563L15.771,44.739L15.244,46.563L13.344,46.563L14.962,47.536L14.318,49.278L15.771,48.147ZM11.767,52.151L13.221,53.282L12.576,51.541L14.153,50.567L12.254,50.567L11.726,48.743L11.239,50.526L9.34,50.526L10.958,51.541L10.314,53.282L11.767,52.151ZM15.771,56.155L17.225,57.328L16.581,55.586L18.158,54.571L16.258,54.571L15.771,52.747L15.244,54.571L13.344,54.571L14.962,55.545L14.318,57.328L15.771,56.155ZM11.767,60.118L13.221,61.25L12.576,59.59L14.153,58.576L12.254,58.576L11.726,56.752L11.239,58.576L9.34,58.576L10.958,59.549L10.314,61.25L11.767,60.118ZM19.776,28.078L21.229,29.25L20.585,27.508L22.162,26.535L20.263,26.535L19.776,24.677L19.248,26.501L17.348,26.501L18.967,27.474L18.322,29.257L19.776,28.084L19.776,28.078ZM23.78,32.082L25.233,33.254L24.589,31.513L26.166,30.539L24.267,30.539L23.78,28.715L23.252,30.498L21.353,30.498L22.971,31.472L22.361,33.254L23.78,32.082ZM19.776,36.086L21.229,37.259L20.585,35.517L22.162,34.543L20.263,34.543L19.776,32.719L19.248,34.502L17.348,34.502L18.967,35.476L18.322,37.259L19.776,36.086ZM23.78,40.131L25.233,41.263L24.589,39.521L26.166,38.548L24.267,38.548L23.78,36.724L23.252,38.506L21.353,38.506L22.971,39.521L22.361,41.263L23.78,40.131ZM19.776,44.136L21.229,45.267L20.585,43.525L22.162,42.552L20.263,42.552L19.776,40.728L19.248,42.511L17.348,42.511L18.967,43.484L18.322,45.267L19.776,44.136ZM23.78,48.14L25.233,49.271L24.589,47.53L26.166,46.556L24.267,46.556L23.78,44.732L23.252,46.556L21.353,46.556L22.971,47.53L22.361,49.271L23.78,48.14ZM19.776,52.144L21.229,53.275L20.585,51.534L22.162,50.56L20.263,50.56L19.776,48.736L19.248,50.519L17.348,50.519L18.967,51.534L18.322,53.275L19.776,52.144ZM23.78,56.148L25.233,57.321L24.589,55.579L26.166,54.564L24.267,54.564L23.78,52.741L23.252,54.564L21.353,54.564L22.971,55.538L22.361,57.321L23.78,56.148ZM19.776,60.111L21.229,61.243L20.585,59.583L22.162,58.569L20.263,58.569L19.776,56.745L19.248,58.569L17.348,58.569L18.967,59.542L18.322,61.243L19.776,60.111ZM27.784,28.071L29.238,29.243L28.593,27.502L30.17,26.528L28.271,26.528L27.784,24.67L27.256,26.494L25.357,26.494L26.975,27.467L26.365,29.25L27.784,28.078L27.784,28.071ZM31.788,32.075L33.283,33.247L32.597,31.506L34.174,30.532L32.316,30.532L31.788,28.708L31.26,30.491L29.402,30.491L30.979,31.465L30.376,33.247L31.795,32.075L31.788,32.075ZM27.784,36.079L29.238,37.252L28.593,35.51L30.17,34.536L28.271,34.536L27.784,32.713L27.256,34.495L25.357,34.495L26.975,35.469L26.365,37.252L27.784,36.079ZM31.788,40.125L33.283,41.256L32.597,39.514L34.174,38.541L32.316,38.541L31.788,36.717L31.26,38.5L29.402,38.5L30.979,39.514L30.376,41.256L31.795,40.125L31.788,40.125ZM27.784,44.129L29.238,45.26L28.593,43.519L30.17,42.545L28.271,42.545L27.784,40.721L27.256,42.504L25.357,42.504L26.975,43.477L26.365,45.26L27.784,44.129ZM31.788,48.133L33.283,49.264L32.597,47.523L34.174,46.549L32.316,46.549L31.788,44.725L31.26,46.549L29.402,46.549L30.979,47.523L30.376,49.264L31.795,48.133L31.788,48.133ZM27.784,52.137L29.238,53.269L28.593,51.527L30.17,50.553L28.271,50.553L27.784,48.73L27.256,50.512L25.357,50.512L26.975,51.527L26.365,53.269L27.784,52.137ZM31.788,56.141L33.283,57.314L32.597,55.572L34.174,54.558L32.316,54.558L31.788,52.734L31.26,54.558L29.402,54.558L30.979,55.531L30.376,57.314L31.795,56.141L31.788,56.141ZM27.784,60.105L29.238,61.236L28.593,59.577L30.17,58.562L28.271,58.562L27.784,56.738L27.256,58.562L25.357,58.562L26.975,59.535L26.365,61.236L27.784,60.105ZM35.793,28.064L37.287,29.236L36.602,27.495L38.179,26.521L36.321,26.521L35.793,24.663L35.265,26.487L33.407,26.487L34.984,27.46L34.373,29.243L35.793,28.071L35.793,28.064ZM39.797,32.068L41.25,33.241L40.606,31.499L42.183,30.525L40.325,30.525L39.797,28.702L39.269,30.484L37.411,30.484L38.988,31.458L38.378,33.241L39.797,32.068ZM35.793,36.072L37.287,37.245L36.602,35.503L38.179,34.53L36.321,34.53L35.793,32.706L35.265,34.488L33.407,34.488L34.984,35.462L34.373,37.245L35.793,36.072ZM39.797,40.118L41.25,41.249L40.606,39.507L42.183,38.534L40.325,38.534L39.797,36.71L39.269,38.493L37.411,38.493L38.988,39.507L38.378,41.249L39.797,40.118ZM35.793,44.122L37.287,45.253L36.602,43.512L38.179,42.538L36.321,42.538L35.793,40.714L35.265,42.497L33.407,42.497L34.984,43.471L34.373,45.253L35.793,44.122ZM39.797,48.126L41.25,49.257L40.606,47.516L42.183,46.542L40.325,46.542L39.797,44.718L39.269,46.542L37.411,46.542L38.988,47.516L38.378,49.257L39.797,48.126ZM35.793,52.13L37.287,53.262L36.602,51.52L38.179,50.546L36.321,50.546L35.793,48.723L35.265,50.505L33.407,50.505L34.984,51.52L34.373,53.262L35.793,52.13ZM39.797,56.135L41.25,57.307L40.606,55.565L42.183,54.551L40.325,54.551L39.797,52.727L39.269,54.551L37.411,54.551L38.988,55.524L38.378,57.307L39.797,56.135ZM35.793,60.098L37.287,61.229L36.602,59.57L38.179,58.555L36.321,58.555L35.793,56.731L35.265,58.555L33.407,58.555L34.984,59.529L34.373,61.229L35.793,60.098ZM43.801,28.057L45.255,29.229L44.61,27.488L46.187,26.514L44.288,26.514L43.801,24.656L43.273,26.48L41.374,26.48L42.992,27.454L42.347,29.236L43.801,28.064L43.801,28.057ZM43.801,36.065L45.255,37.238L44.61,35.496L46.187,34.523L44.288,34.523L43.801,32.699L43.273,34.482L41.374,34.482L42.992,35.455L42.347,37.238L43.801,36.065ZM43.801,44.115L45.255,45.246L44.61,43.505L46.187,42.531L44.288,42.531L43.801,40.707L43.273,42.49L41.374,42.49L42.992,43.464L42.347,45.246L43.801,44.115ZM43.801,52.124L45.255,53.255L44.61,51.513L46.187,50.54L44.288,50.54L43.801,48.716L43.273,50.499L41.374,50.499L42.992,51.513L42.347,53.255L43.801,52.124ZM43.801,60.091L45.255,61.222L44.61,59.563L46.187,58.548L44.288,58.548L43.801,56.724L43.273,58.548L41.374,58.548L42.992,59.522L42.347,61.222L43.801,60.091Z" style="fill:rgb(254,254,254);"/>
                </g>
            </g>
        </g>
    </g>
</svg>
